<?xml version="1.0" encoding="iso-8859-1"?>
<!-- Uploaded to: SVG Repo, www.svgrepo.com, Generator: SVG Repo Mixer Tools -->
<svg fill="#000000" height="800px" width="800px" version="1.1" id="Layer_1" xmlns="http://www.w3.org/2000/svg" xmlns:xlink="http://www.w3.org/1999/xlink" 
	 viewBox="0 0 512 512" xml:space="preserve">
<g>
	<g>
		<path d="M0,0v512h512V0H0z M448,469.333H64c-11.797,0-21.333-9.557-21.333-21.333S52.203,426.667,64,426.667h384
			c11.797,0,21.333,9.557,21.333,21.333S459.797,469.333,448,469.333z M448,341.333H64c-11.797,0-21.333-9.557-21.333-21.333
			S52.203,298.667,64,298.667h384c11.797,0,21.333,9.557,21.333,21.333S459.797,341.333,448,341.333z M448,213.333H64
			c-11.797,0-21.333-9.557-21.333-21.333S52.203,170.667,64,170.667h384c11.797,0,21.333,9.557,21.333,21.333
			S459.797,213.333,448,213.333z M448,85.333H64c-11.797,0-21.333-9.557-21.333-21.333S52.203,42.667,64,42.667h384
			c11.797,0,21.333,9.557,21.333,21.333S459.797,85.333,448,85.333z"/>
	</g>
</g>
</svg>